<svg id="Capa_1" data-name="Capa 1" xmlns="http://www.w3.org/2000/svg" viewBox="0 0 270.31 114"><defs><style>.cls-1{fill:#2e3139;}</style></defs><title>csv</title><path class="cls-1" d="M-188.25,143.62c0,.13,0,.26,0,.38H81.58c0-.37,0-.76,0-1.18-.16-34.33-.06-68.66-.13-103,0-3.19,1.15-7.12.24-9.83H-188.11a12.32,12.32,0,0,0-.14,2.13Q-188,87.87-188.25,143.62ZM-42.53,61.25c14-1.09,13.94-1.09,17.55,11.87,2.91,10.45,5.86,20.9,9,32.11C-12.08,91.68-8.19,79-4.82,66.09c1.1-4.21,3-5.66,7.16-5.15a73.92,73.92,0,0,0,8.52.06C9.17,66.11,7.6,70.9,6,75.68c-4.57,13.53-9.25,27-13.66,40.6-.84,2.58-2,3.25-4.56,3.29-11.76.19-11.81.28-15.42-10.88q-7.5-23.21-14.86-46.46A3.37,3.37,0,0,1-42.53,61.25ZM-69,97.37c-2.69-1.29-5.5-2.32-8.26-3.45-9.27-3.77-14.21-10.36-13.31-17.74,1.06-8.69,7.65-14.69,17.8-15.94a40.64,40.64,0,0,1,15.31,1.3c3.18.83,3.85,2,2.83,5.21-2,6.19-1.73,6.28-8.2,4.75a21.54,21.54,0,0,0-9.41-.21c-2.28.48-4.42,1.61-4.86,4.38s.93,4.56,3.15,5.67c3.26,1.63,6.64,3,10,4.49C-54.61,90-50.25,96.23-51.32,104c-1.16,8.43-7.28,14.37-16.87,15.8A45.05,45.05,0,0,1-87,118.62c-3.62-1-5.06-2.55-3.4-6.32A40.53,40.53,0,0,0-88.73,106c5.83,2.45,11.54,4.07,17.67,3.12,3-.46,5.48-1.69,6-5S-66.27,98.68-69,97.37ZM-117.89,60a41.37,41.37,0,0,1,9.43.6c7,1.37,6.92,1.28,5.46,8-.71,3.27-1.57,4.35-5.4,3.36C-125.95,67.47-138,80-133,97.09c2.8,9.62,12.17,14.4,24.26,11.53,4.19-1,5.06.29,5.57,3.73.48,3.29,1.62,6.41-3.65,7a101.53,101.53,0,0,1-10.4.84c-18.77,0-30.37-10.79-30.71-28.51C-148.3,73.76-135.88,60.66-117.89,60Z" transform="translate(188.26 -30)"/></svg>