<svg id="5e3c4813-91f8-49fe-8790-650d5999fe06" data-name="Capa 1" xmlns="http://www.w3.org/2000/svg" viewBox="0 0 59.56 71.3"><defs><style>.\34 1d13792-36b2-497d-a2b9-3bcfc6a14241{fill:#2e3139;}</style></defs><title>delete</title><path class="41d13792-36b2-497d-a2b9-3bcfc6a14241" d="M49.86,34.12c-8.09,0-16.17,0-24.26,0-0.82,0-1,.19-1,1q0,22.06,0,44.11A5.16,5.16,0,0,0,30,84.54h39.7a5.25,5.25,0,0,0,5.44-5.39q0-22.06,0-44.11c0-.83-0.29-0.93-1-0.93Q62,34.14,49.86,34.12ZM33.9,59c0-4.65,0-9.31,0-14,0-.87.13-1.26,1.11-1.16a16.53,16.53,0,0,0,2.86,0C38.68,43.8,39,44,39,44.92c-0.07,2.75,0,5.5,0,8.24,0,6.63,0,13.27,0,19.9,0,0.8-.16,1.12-1,1.05a22.23,22.23,0,0,0-3.08,0c-0.76,0-1-.17-1-1C33.92,68.43,33.9,63.7,33.9,59Zm19.16,0c0,4.73,0,9.46,0,14.18,0,0.76-.19,1-1,1a27.08,27.08,0,0,0-3.19,0c-0.73,0-.91-0.19-0.91-0.91Q48,59,48,44.73c0-.65.12-0.91,0.84-0.87a24.54,24.54,0,0,0,3.19,0c0.82-.06,1.05.19,1,1C53,49.57,53.05,54.26,53.05,59Zm14,0.07c0,4.69,0,9.38,0,14.07,0,0.85-.24,1.08-1.05,1a17.5,17.5,0,0,0-2.86,0c-0.94.09-1.13-.27-1.13-1.15,0-8.61,0-17.22,0-25.84,0-.84,0-1.69,0-2.53,0-.59.18-0.76,0.75-0.73,1.1,0,2.21.06,3.3,0,0.79,0,1,.23,1,1C67.08,49.57,67.09,54.3,67.09,59Z" transform="translate(-20.04 -13.25)"/><path class="41d13792-36b2-497d-a2b9-3bcfc6a14241" d="M49.9,28.47H76.13c2.45,0,3.45-1,3.46-3.47q0-1.59,0-3.19c0-2.43-1.06-3.49-3.47-3.5-5.58,0-11.17,0-16.75,0-1,0-1.23-.21-1.2-1.19,0.08-2.29-.53-3.31-2.06-3.76A3.93,3.93,0,0,0,55,13.26H44.67c-2.09,0-3.22,1.16-3.23,3.29,0,1.77,0,1.77-1.76,1.77H23.58c-2.48,0-3.54,1.07-3.54,3.55,0,1.1,0,2.2,0,3.3,0,2.21,1.09,3.31,3.3,3.31H49.9Z" transform="translate(-20.04 -13.25)"/></svg>