<svg id="3edecd8d-7476-4a9d-9544-ed3cc78b8683" data-name="Capa 1" xmlns="http://www.w3.org/2000/svg" viewBox="0 0 28.26 34.18"><defs><style>.e15e8445-a018-4928-8d51-63752d69e1a8{fill:#2e3139;}</style></defs><title>filtrar</title><path class="e15e8445-a018-4928-8d51-63752d69e1a8" d="M48.79,32.22h-13c-0.92,0-1.07.15-1.07,1.06,0,1.54,0,3.07,0,4.61A2,2,0,0,0,35,39.07q4.92,7.33,9.82,14.67a2.28,2.28,0,0,1,.41,1.35c0,3.43,0,6.87,0,10.3a0.78,0.78,0,0,0,1.43.62Q49.33,63.3,52,60.6a1.18,1.18,0,0,0,.35-0.9c0-1.56,0-3.12,0-4.67a2.05,2.05,0,0,1,.38-1.23q4.92-7.33,9.82-14.68a2.14,2.14,0,0,0,.39-1.29c0-1.45,0-2.91,0-4.36,0-1.15-.09-1.24-1.28-1.24H48.79Z" transform="translate(-34.67 -32.22)"/></svg>